<svg id="Layer_1" data-name="Layer 1" xmlns="http://www.w3.org/2000/svg" viewBox="0 0 23.75 23.45"><title>collapseWindow</title><path d="M1.26,14.09c-0.43-.43-0.3-0.9.22-0.9h8.59a1,1,0,0,1,.94.87l-0.07,8.62a0.56,0.56,0,0,1-1,.06Z" transform="translate(-0.25 -0.49)" style="fill:#018ed5"/><line x1="1" y1="22.45" x2="8.19" y2="15.26" style="fill:none;stroke:#018ed5;stroke-linecap:round;stroke-miterlimit:10;stroke-width:2px"/><path d="M23.74,9.41c0.43,0.43.3,0.88-.22,0.86l-8.58.07A1,1,0,0,1,14,9.48V0.86A0.57,0.57,0,0,1,15,.8Z" transform="translate(-0.25 -0.49)" style="fill:#018ed5"/><line x1="15.4" y1="8.19" x2="22.59" y2="1" style="fill:none;stroke:#018ed5;stroke-linecap:round;stroke-miterlimit:10;stroke-width:2px"/></svg>